<?xml version="1.0" encoding="UTF-8" standalone="no"?>
<!DOCTYPE svg PUBLIC "-//W3C//DTD SVG 1.1//EN" "http://www.w3.org/Graphics/SVG/1.1/DTD/svg11.dtd">
<svg xmlns="http://www.w3.org/2000/svg" xmlns:xlink="http://www.w3.org/1999/xlink" version="1.1" width="841.89pt" height="718.269pt" viewBox="0 0 841.89 718.269">
<g enable-background="new">
<g id="Layer-1" data-name="Layer 1">
<clipPath id="cp0">
<path transform="matrix(1,0,0,-1,0,718.269)" d="M 0 718.269 L 841.89 718.269 L 841.89 0 L 0 0 Z "/>
</clipPath>
<g clip-path="url(#cp0)">
<path transform="matrix(1,0,0,-1,407.7158,181.00037)" d="M 0 0 C -21.906 .027 -61.125 -3.745 -99.994 -11.075 C -122.427 -15.305 -144.406 -21.263 -165.991 -28.752 C -173.806 -31.464 -179.271 -35.784 -181.537 -44.067 C -183.817 -52.4 -186.902 -60.51 -189.28 -68.82 C -204.161 -120.825 -211.131 -173.651 -205.736 -227.778 C -202.453 -260.713 -194.271 -292.345 -179.934 -322.165 C -158.625 -366.487 -126.705 -401.914 -86.903 -430.401 C -59.958 -449.685 -30.625 -464.545 .088 -476.854 C 6.339 -479.359 12.167 -480.286 18.333 -477.291 C 35.39 -469.002 52.62 -461.051 69.476 -452.371 C 108.753 -432.144 142.861 -405.375 170.08 -370.374 C 208.98 -320.349 225.428 -262.624 227.259 -200.136 C 228.772 -148.439 219.152 -98.447 203.403 -49.44 C 200.313 -39.827 195.84 -31.878 185.375 -28.525 C 130.817 -11.046 75.049 -.831 0 0 M -202.558 -88.96 C -199.536 -79.742 -200.269 -81.564 -205.987 -78.84 C -249.173 -58.269 -290.49 -34.694 -328.875 -5.885 C -356.863 15.121 -373.453 42.884 -382.588 75.855 C -389.429 100.547 -392.299 125.778 -392.124 151.372 C -392.111 153.167 -392.535 155.039 -391.272 157.315 C -387.345 152.187 -383.584 147.273 -379.822 142.359 C -379.099 132.576 -378.574 122.772 -377.612 113.012 C -375.031 86.816 -368.799 61.57 -357.099 37.865 C -346.579 16.549 -329.808 .974 -310.949 -12.917 C -277.753 -37.367 -242.032 -57.428 -205.059 -75.423 C -199.945 -77.912 -199.176 -77.749 -197.919 -72.314 C -195.252 -60.77 -191.129 -49.686 -187.591 -38.417 C -186.022 -33.418 -183.749 -28.897 -179.596 -25.519 C -151.348 -14.286 -122.003 -7.029 -92.119 -1.964 C -52.996 4.667 -13.602 8.203 26.135 7.128 C 78.848 5.704 130.242 -3.544 180.608 -18.869 C 186.48 -20.655 192.231 -22.838 198.038 -24.836 C 204.248 -30.096 207.506 -37.028 209.658 -44.71 C 212.034 -53.19 214.767 -61.569 217.276 -70.013 C 219.119 -76.21 219.067 -76.22 224.939 -73.366 C 258.931 -56.848 291.756 -38.312 322.812 -16.729 C 346.027 -.597 364.971 19.321 376.725 45.363 C 388.031 70.416 392.888 96.988 394.842 124.235 C 395.243 129.829 394.38 135.564 396.361 141.02 C 400.121 146.276 403.882 151.532 408.171 157.527 C 408.171 149.762 408.511 142.733 408.111 135.746 C 406.479 107.211 402.015 79.215 390.794 52.685 C 379.4 25.749 360.877 4.544 337.323 -12.38 C 302.512 -37.395 265.1 -57.971 226.564 -76.584 C 219.122 -80.179 219.091 -80.114 222.179 -87.988 C 225.104 -103.146 228.431 -118.236 230.433 -133.568 C 230.873 -136.945 233.011 -135.559 234.917 -135.025 C 252.255 -130.17 268.862 -123.505 284.555 -114.681 C 309.985 -100.38 331.473 -81.733 347.641 -57.202 C 357.724 -41.905 363.995 -25.005 369.222 -7.623 C 373.925 -5.043 377.397 -.894 382.184 2.617 C 382.713 -.399 381.696 -2.841 381.102 -5.236 C 368.481 -56.079 337.406 -92.329 292.188 -117.293 C 274.22 -127.212 255.171 -134.474 235.247 -139.359 C 231.952 -140.167 230.649 -141.484 231.542 -144.804 C 231.928 -146.24 232.079 -147.738 232.337 -149.207 C 232.894 -158.168 233.498 -167.128 233.978 -176.095 C 234.107 -178.522 235.045 -178.685 237.156 -178.115 C 253.902 -173.585 269.006 -165.871 282.868 -155.464 C 292.509 -148.227 300.343 -139.247 308.402 -130.449 C 312.87 -128.864 317.339 -127.278 322.853 -125.322 C 313.382 -139.992 302.147 -151.346 288.954 -160.82 C 274.056 -171.518 257.845 -179.449 239.75 -182.911 C 234.924 -183.834 233.907 -185.867 233.905 -190.476 C 233.885 -231.121 227.618 -270.688 212.565 -308.631 C 194.732 -353.583 166.296 -390.583 129.059 -421.257 C 99.313 -445.76 65.267 -462.625 30.713 -478.792 C 7.881 -489.473 12.898 -489.694 -11.629 -479.376 C -49.753 -463.34 -85.187 -442.818 -116.308 -415.319 C -161.539 -375.353 -191.955 -326.441 -205.744 -267.413 C -211.723 -241.818 -214.287 -215.881 -214.315 -189.673 C -214.32 -185.907 -215.269 -184.595 -218.91 -183.905 C -253.876 -177.277 -281.583 -159.057 -302.901 -130.793 C -303.986 -129.355 -304.95 -127.824 -306.87 -125.022 C -301.485 -127.124 -297.457 -128.695 -293.43 -130.266 C -291.6 -131.071 -290.09 -132.173 -288.76 -133.779 C -280.821 -143.367 -271.932 -151.96 -261.686 -159.103 C -248.469 -168.317 -233.982 -174.704 -218.409 -178.694 C -215.67 -179.396 -213.736 -179.479 -213.682 -175.469 C -213.565 -166.838 -212.92 -158.215 -212.491 -149.588 C -212.38 -149.274 -212.225 -148.968 -212.166 -148.645 C -210.861 -141.468 -210.864 -141.471 -217.855 -139.765 C -250.801 -131.722 -280.772 -117.552 -307.239 -96.227 C -337.63 -71.74 -356.761 -40.219 -365.633 -2.339 C -365.927 -1.085 -365.954 .231 -366.21 2.419 C -361.564 -1.148 -357.565 -4.219 -353.566 -7.289 C -352.535 -8.612 -352.018 -10.107 -351.568 -11.746 C -342.33 -45.477 -324.055 -73.331 -296.854 -95.293 C -274.062 -113.695 -248.317 -126.401 -220.316 -134.731 C -210.798 -137.563 -210.826 -137.638 -209.59 -127.636 C -209.468 -126.651 -209.232 -125.68 -209.054 -124.702 C -206.888 -112.788 -204.723 -100.874 -202.558 -88.96 " fill="#353534"/>
<path transform="matrix(1,0,0,-1,228.1201,206.51947)" d="M 0 0 C -4.153 -3.377 -6.427 -7.898 -7.996 -12.897 C -11.533 -24.167 -15.656 -35.251 -18.324 -46.795 C -19.58 -52.23 -20.35 -52.393 -25.463 -49.904 C -62.437 -31.909 -98.158 -11.848 -131.353 12.602 C -150.212 26.493 -166.983 42.068 -177.503 63.384 C -189.203 87.089 -195.435 112.335 -198.017 138.531 C -198.978 148.292 -199.503 158.095 -200.227 167.878 C -199.464 169.874 -201.126 173.266 -199.041 173.813 C -196.583 174.458 -195.339 171.278 -193.98 169.304 C -175.61 142.634 -153.551 119.195 -129.667 97.536 C -115.747 84.912 -100.937 73.214 -86.037 61.734 C -64.448 45.101 -42.33 29.156 -19.923 13.634 C -13.311 9.053 -6.162 5.249 0 0 " fill="#f2d714"/>
<path transform="matrix(1,0,0,-1,804.0771,39.980409)" d="M 0 0 C -1.981 -5.456 -1.118 -11.191 -1.52 -16.785 C -3.474 -44.032 -8.33 -70.604 -19.637 -95.657 C -31.391 -121.699 -50.334 -141.617 -73.549 -157.75 C -104.605 -179.332 -137.431 -197.868 -171.422 -214.386 C -177.294 -217.24 -177.242 -217.23 -179.085 -211.033 C -181.595 -202.589 -184.327 -194.21 -186.703 -185.73 C -188.855 -178.048 -192.113 -171.116 -198.323 -165.856 C -194.894 -160.253 -188.641 -158.218 -183.7 -154.585 C -173.516 -147.099 -162.659 -140.531 -152.412 -133.125 C -135.712 -121.056 -119.16 -108.77 -103.151 -95.787 C -79.401 -76.525 -56.302 -56.512 -35.464 -34.081 C -25.204 -23.037 -15.221 -11.694 -7.123 1.145 C -5.598 3.563 -4.022 6.156 -1.135 7.589 C .578 5.238 -1.558 2.315 0 0 " fill="#f2d714"/>
<path transform="matrix(1,0,0,-1,205.1577,269.95988)" d="M 0 0 C -2.165 -11.914 -4.33 -23.828 -6.496 -35.742 C -6.674 -36.721 -6.91 -37.691 -7.032 -38.677 C -8.268 -48.679 -8.24 -48.604 -17.758 -45.772 C -45.759 -37.441 -71.504 -24.736 -94.296 -6.333 C -121.497 15.629 -139.771 43.483 -149.01 77.213 C -149.459 78.852 -149.977 80.348 -151.008 81.67 C -151.008 83.631 -151.008 85.592 -151.008 89.129 C -104.929 50.653 -54.747 21.398 0 0 " fill="#f2d714"/>
<path transform="matrix(1,0,0,-1,776.9375,188.62335)" d="M 0 0 C -5.227 -17.382 -11.498 -34.282 -21.581 -49.579 C -37.749 -74.11 -59.236 -92.757 -84.667 -107.058 C -100.359 -115.882 -116.967 -122.547 -134.305 -127.402 C -136.211 -127.936 -138.349 -129.322 -138.789 -125.945 C -140.791 -110.613 -144.117 -95.523 -147.043 -80.365 C -132.714 -73.911 -118.162 -67.901 -104.125 -60.864 C -91.318 -54.443 -79.046 -46.95 -66.578 -39.857 C -46.428 -28.393 -27.687 -14.871 -9.54 -.5 C -7.484 1.128 -5.566 2.932 -3.594 4.665 C -2.515 5.613 -1.602 7.35 .092 6.452 C 1.788 5.553 .771 3.792 .647 2.4 C .574 1.587 .226 .799 0 0 " fill="#f2d714"/>
<path transform="matrix(1,0,0,-1,195.2246,330.58879)" d="M 0 0 C -.429 -8.626 -1.074 -17.25 -1.191 -25.881 C -1.245 -29.891 -3.179 -29.808 -5.918 -29.105 C -21.491 -25.115 -35.978 -18.729 -49.195 -9.514 C -59.441 -2.371 -68.33 6.222 -76.269 15.809 C -77.599 17.415 -79.108 18.517 -80.938 19.322 C -80.519 21.81 -82.197 23.597 -83.8 26.471 C -70.495 21.435 -58.099 16.763 -45.717 12.05 C -35.255 8.067 -24.544 4.982 -13.654 2.37 C -9.119 1.282 -4.599 .517 0 0 " fill="#f2d714"/>
<path transform="matrix(1,0,0,-1,716.1182,311.4496)" d="M 0 0 C -8.06 -8.798 -15.894 -17.778 -25.534 -25.015 C -39.396 -35.421 -54.5 -43.136 -71.246 -47.666 C -73.357 -48.236 -74.295 -48.073 -74.425 -45.646 C -74.904 -36.679 -75.509 -27.718 -76.065 -18.757 C -65.876 -17.643 -56.231 -14.377 -46.492 -11.421 C -31.432 -6.85 -16.899 -.927 -2.443 5.229 C -.844 5.91 1.088 5.812 3.005 6.095 C 2.938 3.408 .396 2.234 0 0 " fill="#f2d714"/>
<path transform="matrix(1,0,0,-1,614.1582,552.9403)" d="M 0 0 C -1.131 -19.271 -5.901 -38.777 -11.6 -58.093 C -15.833 -72.441 -20.372 -86.677 -27.874 -99.762 C -29.615 -102.797 -31.425 -105.521 -35.531 -104.7 C -38.578 -104.091 -39.952 -103.343 -38.127 -99.461 C -23.513 -68.387 -15.314 -35.475 -10.983 -1.524 C -10.69 .772 -11.066 3.16 -10.716 5.441 C -10.365 7.716 -12.688 11.588 -7.4 11.347 C -1.947 11.098 -.16 9.733 -.006 4.939 C .036 3.609 0 2.277 0 0 " fill="#353534"/>
<path transform="matrix(1,0,0,-1,223.5835,541.6903)" d="M 0 0 C 2.023 .419 2.904 -.382 2.876 -2.639 C 2.541 -30.583 11.586 -56.658 18.998 -83.053 C 21.612 -92.365 25.302 -101.26 29.665 -109.896 C 30.406 -111.363 33.066 -113.207 30.285 -114.933 C 27.791 -116.481 24.88 -116.946 22.474 -114.52 C 19.975 -111.999 18.533 -108.764 17.07 -105.602 C 5.954 -81.588 -.77 -56.246 -5.59 -30.334 C -6.993 -22.794 -7.809 -15.2 -7.728 -7.519 C -7.662 -1.19 -6.391 .089 0 0 " fill="#353534"/>
<path transform="matrix(1,0,0,-1,624.3271,570.1064)" d="M 0 0 C -2.146 -13.355 -4.712 -27.162 -9.476 -40.604 C -13.408 -51.705 -16.883 -62.922 -22.546 -73.32 C -23.199 -74.52 -23.872 -75.637 -24.84 -76.48 C -26.214 -77.679 -28.04 -77.804 -29.448 -76.792 C -30.668 -75.916 -30.091 -74.413 -29.642 -73.122 C -25.701 -61.805 -22.039 -50.383 -17.772 -39.191 C -14.97 -31.838 -14.276 -24.081 -12.388 -16.563 C -10.425 -8.747 -9.222 -.736 -7.815 7.213 C -7.471 9.164 -6.728 10.336 -4.665 10.248 C -2.285 10.147 -.423 9.086 -.059 6.62 C .23 4.668 0 2.639 0 0 " fill="#f2d714"/>
<path transform="matrix(1,0,0,-1,205.6338,570.1581)" d="M 0 0 C .647 3.968 -2.037 9.589 3.926 9.986 C 8.77 10.31 7.248 4.592 7.85 1.867 C 11.05 -12.629 13.932 -27.191 18.463 -41.353 C 21.369 -50.435 24.504 -59.443 27.52 -68.49 C 28.042 -70.057 28.337 -71.714 28.994 -73.218 C 29.792 -75.041 29.17 -76.304 27.512 -76.702 C 26.013 -77.063 24.274 -77.271 23.304 -75.248 C 18.444 -65.118 13.207 -55.158 10.334 -44.193 C 8.261 -36.275 5.145 -28.693 3.666 -20.546 C 2.402 -13.58 .729 -6.695 0 0 " fill="#f2d714"/>
<path transform="matrix(1,0,0,-1,631.0898,583.7997)" d="M 0 0 C -3.54 -13.926 -6.053 -28.19 -12.374 -41.324 C -13.306 -43.262 -14.172 -45.235 -15.206 -47.116 C -15.964 -48.492 -16.627 -50.744 -18.687 -49.755 C -20.372 -48.945 -19.134 -47.042 -18.748 -45.75 C -14.951 -33.044 -11.045 -20.371 -7.22 -7.674 C -6.384 -4.896 -5.532 -2.093 -5.091 .761 C -4.774 2.803 -4.202 3.817 -1.997 3.376 C -.036 2.983 .362 1.793 0 0 " fill="#353534"/>
<path transform="matrix(1,0,0,-1,201.605,580.27627)" d="M 0 0 C 2.003 .096 1.613 -2.231 2.014 -3.54 C 6.524 -18.285 10.902 -33.07 15.316 -47.844 C 15.503 -48.471 15.621 -49.13 15.898 -49.714 C 16.491 -50.964 17.05 -52.613 15.781 -53.268 C 14.041 -54.163 13.115 -52.389 12.491 -51.065 C 9.162 -44.005 5.67 -36.997 3.678 -29.4 C 1.53 -21.207 -.561 -12.996 -2.528 -4.758 C -2.958 -2.959 -3.734 -.595 0 0 " fill="#353534"/>
<path transform="matrix(1,0,0,-1,200.8687,607.3847)" d="M 0 0 C 2.312 -5.464 .392 -7.771 -7.275 -7.702 C -7.466 -7.646 -8.449 -7.644 -8.962 -7.152 C -11.236 -4.977 -11.435 -1.074 -11.303 1.612 L -1.056 2.801 Z M -1.306 4.05 L -11.303 2.801 C -10.96 5.419 -6.687 5.896 -3.69 6.161 C -3.251 6.2 -2.78 5.864 -2.324 5.703 Z " fill="#353534"/>
<path transform="matrix(1,0,0,-1,249.6338,593.5155)" d="M 0 0 C -1.484 -.462 -2.32 -.73 -1.922 -2.592 C -1.534 -4.409 -.768 -5.294 1.1 -4.897 C 8.513 -3.324 15.921 -1.728 23.998 .004 C 20.935 1.976 17.929 2.244 15.026 2.561 C 12.2 2.868 5.321 1.271 5.321 1.271 Z " fill="#353534"/>
<path transform="matrix(1,0,0,-1,575.333,592.4394)" d="M 0 0 C 1.541 -.424 3.435 -.451 4.899 -1.11 C 6.308 -1.744 7.162 -2.029 6.909 -3.751 C 6.631 -5.647 5.719 -6.318 3.859 -5.928 C -3.563 -4.366 -10.992 -2.837 -19.153 -1.144 C -14.496 1.736 -10.212 2.036 -5.788 1.334 Z " fill="#353534"/>
<path transform="matrix(1,0,0,-1,248.147,613.45108)" d="M 0 0 C -4.65 11.647 -8.411 23.539 -8.596 36.257 C -6.821 23.907 -2.641 12.153 0 0 " fill="#353534"/>
<path transform="matrix(1,0,0,-1,638.0469,606.8114)" d="M 0 0 L -.081 .035 C 2.279 -1.632 2.151 -3.635 1.066 -6.068 C -.115 -8.719 -2.063 -8.841 -4.243 -8.016 C -6.405 -7.197 -10.048 -7.867 -10.252 -4.876 C -10.433 -2.232 -9.496 .967 -6.026 1.961 L -.082 .035 C -.081 .035 0 0 0 0 " fill="#353534"/>
<path transform="matrix(1,0,0,-1,590.2695,577.3857)" d="M 0 0 C -.27 -12.673 -3.949 -24.512 -8.557 -36.123 C -6.115 -23.98 -1.838 -12.279 0 0 " fill="#353534"/>
<path transform="matrix(1,0,0,-1,571.0078,589.5497)" d="M 0 0 C -1.222 .163 -2.617 .163 -3.475 1.787 C 2 2.225 6.788 1.473 12.546 -1.394 C 10.251 -1.906 8.327 -1.407 6.577 -1.05 " fill="#353534"/>
<path transform="matrix(1,0,0,-1,250.7812,590.8974)" d="M 0 0 C -1.177 -.397 -2.592 -.887 -3.936 .394 C 1.186 2.465 5.886 3.839 11.052 3.035 C 10.842 1.875 10.096 1.636 9.312 1.505 C 9.312 1.505 2.688 .905 0 0 " fill="#353534"/>
<path transform="matrix(1,0,0,-1,639.251,605.9452)" d="M 0 0 C .788 -.032 1.637 -.271 1.646 .677 C 1.664 2.34 .001 2.9 -1.43 3.367 C -2.35 3.668 -3.249 4.035 -4.165 4.348 C -7.14 5.361 -8.325 4.678 -7.632 2.229 Z " fill="#353534"/>
<path transform="matrix(1,0,0,-1,628.0508,367.5937)" d="M 0 0 C 0 5.327 .223 10.665 -.035 15.979 C -2.092 58.354 -11.281 99.306 -25.067 139.296 C -27.285 145.732 -31.898 150.324 -38.465 152.507 C -45.404 154.814 -52.407 156.942 -59.428 158.992 C -102.597 171.598 -146.617 179 -191.593 180.566 C -229.517 181.887 -267.112 178.604 -304.491 172.474 C -330.802 168.159 -356.573 161.674 -381.749 152.818 C -388.251 150.531 -393.074 147.057 -395.464 140.245 C -407.023 107.302 -415.098 73.529 -418.922 38.85 C -422.271 8.482 -422.522 -21.918 -418.16 -52.308 C -409.508 -112.581 -383.744 -164.103 -340.181 -206.686 C -305.19 -240.89 -263.523 -264.309 -218.447 -282.316 C -212.14 -284.836 -206.563 -284.415 -200.748 -281.419 C -195.57 -278.751 -190.3 -276.25 -184.998 -273.832 C -148.497 -257.188 -113.717 -237.898 -84.16 -210.185 C -52.714 -180.698 -29.555 -145.904 -15.515 -105.104 C -3.794 -71.042 .811 -35.901 0 0 M -220.335 186.593 C -145.286 185.762 -89.518 175.547 -34.96 158.068 C -24.495 154.715 -20.021 146.767 -16.932 137.153 C -1.183 88.146 8.438 38.154 6.924 -13.543 C 5.093 -76.03 -11.354 -133.756 -50.255 -183.78 C -77.474 -218.782 -111.582 -245.551 -150.859 -265.777 C -167.715 -274.458 -184.945 -282.409 -202.002 -290.697 C -208.168 -293.692 -213.996 -292.766 -220.247 -290.261 C -250.959 -277.952 -280.293 -263.092 -307.238 -243.808 C -347.04 -215.32 -378.96 -179.894 -400.269 -135.571 C -414.605 -105.752 -422.788 -74.12 -426.071 -41.185 C -431.466 12.942 -424.496 65.769 -409.615 117.773 C -407.237 126.083 -404.152 134.193 -401.872 142.526 C -399.605 150.809 -394.141 155.129 -386.326 157.841 C -364.741 165.331 -342.762 171.288 -320.329 175.519 C -281.459 182.849 -242.241 186.62 -220.335 186.593 " fill="#fefefe"/>
<path transform="matrix(1,0,0,-1,285.353,396.0409)" d="M 0 0 C -.057 -.093 -.182 -.218 -.157 -.271 C -.1 -.392 .031 -.478 .132 -.577 C .194 -.39 .255 -.202 .316 -.015 C .21 -.01 .105 -.005 0 0 M -1.639 .733 C -1.919 .839 -2.18 .973 -2.458 1.025 C -2.567 1.047 -2.71 .89 -2.839 .813 C -2.573 .708 -2.313 .57 -2.037 .512 C -1.93 .489 -1.785 .647 -1.639 .733 M 73.303 86.001 C 73.578 87.952 72.937 88.984 71.82 90.098 C 71.196 88.347 71.896 87.339 73.303 86.001 M 73.57 86.107 C 73.83 81.615 75.357 79.028 78.908 76.657 C 77.106 79.847 75.699 82.338 73.57 86.107 M 115.577 116.837 C 116.415 111.738 115.626 106.561 116.164 101.916 C 116.273 106.593 117.009 111.753 115.577 116.837 M 64.354 -6.891 C 62.687 -1.681 57.995 1.093 54.51 4.839 C 57.43 .638 60.22 -3.668 64.354 -6.891 M 2.224 -.398 C 1.983 -.8 1.742 -1.2 1.5 -1.602 C 9.116 -4.868 16.732 -8.134 24.349 -11.4 C 18.299 -4.852 9.575 -4.116 2.224 -.398 M 109.84 55.548 C 112.96 62.154 118.941 54.78 124.512 53.759 C 117.95 58.656 110.239 60.134 102.267 62.819 C 104.128 58.623 112.487 59.36 109.84 55.548 M 74.116 62.25 C 55.065 63.954 47.319 55.746 48.042 41.327 C 50.147 42.095 49.627 43.646 49.591 45.39 C 49.469 51.453 54.009 56.215 60.226 57.719 C 61.77 58.093 62.975 59.576 64.635 58.123 C 68.307 63.378 67.94 59.064 68.354 56.469 C 70.773 57.691 72.811 59.213 74.116 62.25 M 110.841 22.895 C 104.762 8.1 96.943 -4.578 95.08 -19.528 C 94.459 -24.508 95.373 -29.438 98.707 -33.163 C 102.154 -37.014 102.479 -39.554 97.359 -41.678 C 97.24 -41.728 97.292 -42.188 97.175 -43.345 C 103.613 -38.755 107.571 -42.635 111.298 -47.866 C 113.926 -41.797 116.037 -36.559 118.446 -31.461 C 120.999 -26.058 125.896 -20.821 125.978 -15.453 C 126.064 -9.903 121.594 -4.284 119.121 1.307 C 118.986 1.611 118.883 1.93 118.764 2.24 C 116.288 8.694 113.813 15.148 110.841 22.895 M 71.629 41.21 C 62.122 39.329 47.642 27.292 54.689 16.124 C 53.921 25.427 58.607 30.818 65.104 35.281 C 67.501 36.929 69.439 39.244 71.585 41.257 C 71.883 41.582 72.196 41.896 72.47 42.242 C 72.532 42.32 72.459 42.506 72.449 42.642 C 72.633 41.902 72.555 41.313 71.629 41.21 M 129.601 53.283 C 129.479 53.168 129.237 52.977 129.254 52.951 C 136.871 40.994 136.858 26.506 142.242 13.811 C 142.696 12.74 142.893 11.546 143.437 10.531 C 151.833 -5.138 148.239 -19.589 139.217 -33.633 C 134.356 -41.201 129.651 -48.892 123.907 -55.811 C 121.543 -58.658 121.211 -61.016 122.415 -64.39 C 126.408 -75.585 125.492 -86.26 118.433 -96.181 C 117.002 -98.19 115.461 -98.841 113.059 -98.826 C 97.563 -98.726 82.063 -98.644 66.568 -98.868 C 62.4 -98.929 62.109 -97.429 63.496 -94.286 C 63.899 -93.372 64.336 -92.472 64.731 -91.554 C 68.401 -82.999 68.399 -82.998 78.258 -82.581 C 64.871 -78.387 72.785 -68.28 71.034 -60.695 C 69.394 -60.351 69.274 -62.62 67.609 -63.04 C 65.5 -58.754 65.63 -54.154 65.942 -49.55 C 65.999 -48.719 66.887 -48.838 67.538 -48.841 C 67.652 -48.929 67.753 -49.038 67.876 -49.109 C 67.919 -49.134 68.016 -49.063 68.088 -49.035 L 67.451 -48.959 C 68.539 -42.97 68.843 -36.807 71.994 -30.164 C 66.651 -36.553 64.043 -43.078 61.491 -49.92 C 59.491 -43.378 57.135 -37.053 57.199 -30.206 C 57.206 -29.502 57.894 -28.782 57.36 -27.954 C 54.125 -22.941 54.607 -16.079 52.003 -11.823 C 48.074 -5.4 46.934 3.188 39.108 7.374 C 32.603 10.854 31.087 18.608 34.641 25.737 C 35.733 27.928 37.253 29.905 38.62 32.046 C 34.472 30.599 31.308 26.128 30.687 20.983 C 29.946 14.842 31.471 9.364 37.174 6.513 C 41.054 4.573 42.74 1.747 44.095 -1.963 C 47.286 -10.7 50.79 -19.323 54.029 -28.044 C 56.451 -34.567 55.721 -41.623 56.988 -48.425 C 52.251 -36.325 53.805 -22.23 45.012 -11.405 C 42.021 -15.649 39.236 -20.194 35.861 -24.247 C 30.951 -30.146 27.593 -30.515 20.447 -27.864 C 9.421 -23.775 1.095 -15.657 -8.295 -9.135 C -16.057 -3.743 -15.959 -3.659 -8.779 2.694 C -7.132 4.15 -5.796 4.841 -3.387 3.827 C 4.426 .54 12.437 -2.271 20.297 -5.449 C 22.758 -6.444 23.997 -6.25 25.227 -3.616 C 28.203 2.756 30.958 8.782 28.419 16.284 C 26.36 22.37 29.59 27.659 33.834 32.013 C 35.911 34.143 38.225 36.153 40.744 37.714 C 44.504 40.042 46.052 43.303 46.644 47.53 C 47.915 56.611 52.749 61.13 62.021 62.403 C 63.669 62.629 65.312 62.939 66.967 63.052 C 74.624 63.572 77.861 68.463 75.239 75.818 C 73.569 80.505 71.456 85.047 70.001 89.795 C 68.774 93.802 68.545 97.797 70.778 101.913 C 72.783 105.607 70.332 109.449 69.133 113.28 C 68.901 111.77 68.668 110.259 68.424 108.679 C 68.13 108.902 67.786 109.027 67.757 109.203 C 67.099 113.282 63.202 117.656 66.486 121.367 C 71.357 126.869 76.964 132.021 85.32 131.577 C 87.14 131.48 88.966 131.516 90.788 131.495 C 90.786 131.499 90.779 131.22 90.779 131.22 L 90.862 131.368 C 90.356 131.786 89.526 132.13 89.412 132.636 C 89.146 133.809 90.115 133.862 90.975 133.812 C 93.868 133.648 96.719 133.146 99.633 132.645 C 96.674 136.239 92.582 135.931 88.608 136.276 C 84.177 136.663 80.977 133.32 76.803 132.817 C 72.399 132.288 70.296 128.238 67.355 124.895 C 67.43 131.134 74.607 135.691 86.09 137.305 C 99.291 139.16 110.226 134.589 114.496 119.59 C 116.299 121.041 114.905 122.542 114.787 124.038 C 114.674 125.47 112.793 127.332 115.17 128.358 C 116.922 129.115 118.781 128.707 120.281 127.38 C 121.567 126.243 122.287 124.333 124.746 124.282 C 122.549 132.736 115.031 130.816 108.521 132.063 C 116.704 136.203 127.249 130.397 129.705 121.198 C 131.615 114.042 131.247 106.938 127.338 100.424 C 124.499 95.693 124.041 90.594 123.314 85.267 C 122.832 81.735 120.945 78.279 121.222 74.387 C 121.489 70.631 121.265 66.809 124.027 63.66 C 111.709 59.708 103.705 67.358 103.057 83.173 C 97.29 78.525 97.62 66.612 104.018 64.195 C 111.9 61.218 120.111 59.107 127.661 55.228 C 127.661 55.228 127.623 55.293 127.623 55.293 C 127.076 54.045 127.5 53.767 128.675 54.24 L 128.618 54.296 C 128.122 53.096 128.475 52.745 129.674 53.24 Z " fill="#fefefe"/>
<path transform="matrix(1,0,0,-1,481.543,450.94038)" d="M 0 0 C -.101 -.101 -.273 -.196 -.28 -.304 C -.287 -.411 -.13 -.53 -.045 -.644 C .056 -.543 .229 -.448 .236 -.341 C .244 -.233 .086 -.115 0 0 M -17.704 133.619 C -17.801 133.709 -17.891 133.863 -17.994 133.873 C -18.099 133.882 -18.217 133.749 -18.328 133.677 C -18.231 133.586 -18.141 133.433 -18.037 133.423 C -17.933 133.413 -17.815 133.548 -17.704 133.619 M 4.006 -8.415 C 4.486 -5.861 3.25 -4.058 1.028 -2.87 C 2.021 -4.719 3.014 -6.566 4.006 -8.415 M 24.746 63.693 C 28.251 62.929 31.684 63.4 35.612 65.088 C 31.527 64.563 28.137 64.129 24.746 63.693 M 24.169 58.159 C 24.072 58.551 23.977 58.943 23.881 59.335 C 20.327 58.632 16.755 58.006 13.227 57.193 C 11.415 56.776 10.869 54.961 11.386 53.661 C 11.997 52.123 13.356 53.42 14.316 53.83 C 17.615 55.239 20.887 56.711 24.169 58.159 M -13.311 142.445 C -4.962 150.138 1.423 158.985 2.844 170.753 C .697 169.763 -.81 168.518 -.3 165.676 C .227 162.744 -.869 160.06 -2.508 157.707 C -6.083 152.572 -8.908 146.864 -13.311 142.445 M -4.178 26.906 C -3.207 32.749 -2.958 37.263 -4.891 41.322 C -6.311 44.306 -5.773 46.393 -4.324 49.046 C -1.903 53.476 -1.021 58.25 -3.484 63.327 C -2.984 57.125 -4.618 51.859 -9.472 47.885 C -10.651 46.92 -10.161 45.744 -9.349 44.822 C -5.178 40.09 -4.535 34.284 -4.178 26.906 M -17.257 114.789 C -15.527 108.461 -12.639 103.511 -11.802 97.899 C -10.258 87.546 -12.495 84.297 -22.608 82.27 C -26.025 81.584 -29.436 80.861 -32.857 80.205 C -34.08 79.971 -35.654 80.497 -36.01 78.344 C -29.365 77.739 -22.846 78.322 -16.393 79.709 C -10.34 81.011 -7.926 83.969 -7.983 90.204 C -8.065 99.161 -11.614 106.871 -17.257 114.789 M .845 72.836 C 1.069 73.039 1.293 73.241 1.518 73.443 C 1.383 73.545 1.247 73.647 1.112 73.75 L .884 72.839 C 2.699 71.971 3.293 70.177 4.07 68.551 C 7.741 60.87 6.062 53.313 3.609 45.731 C 3.279 44.712 1.469 42.819 3.413 42.44 C 6.762 41.787 5.195 39.792 5.014 38.331 C 4.598 34.984 2.847 32.085 1.512 29.044 C 1.157 28.235 -.51 26.519 1.418 26.368 C 4.942 26.093 3.645 24 3.133 22.601 C 2.101 19.776 2.751 16.104 -.842 14.441 C -1.848 13.977 -1.251 12.982 -.707 12.348 C .757 10.641 2.268 8.975 3.797 7.251 C 7.172 19.73 7.155 32.373 10.021 44.554 C 10.247 45.515 10.684 46.892 10.237 47.471 C 6.98 51.699 9.227 56.311 9.125 60.729 C 9.068 63.227 9.486 65.818 8.56 68.15 C 7.221 71.516 5.235 74.306 .845 72.836 M 48.349 59.224 C 49.535 54.348 46.464 52.021 42.877 49.902 C 32.738 43.915 23.502 36.411 12.545 31.808 C 11.057 31.183 10.748 30.067 10.427 28.732 C 9.223 23.725 7.862 18.752 6.729 13.729 C 5.788 9.565 6.201 5.605 8.229 1.654 C 15.297 -12.112 22.184 -25.972 29.012 -39.858 C 29.574 -41.003 32.038 -42.647 29.46 -43.887 C 27.494 -44.83 26.282 -43.198 25.283 -41.407 C 20.591 -32.998 15.822 -24.629 10.918 -16.343 C 10.042 -14.863 9.579 -12.406 6.255 -12.791 C 11.755 -23.135 17.078 -33.147 22.992 -44.27 C 12.923 -43.31 12.283 -33.112 5.59 -29.558 C 8.607 -34.161 11.531 -38.623 14.403 -43.005 C 13.312 -44.509 12.041 -43.972 10.99 -43.974 C -5.17 -43.997 -21.331 -43.884 -37.49 -44.02 C -40.609 -44.046 -42.235 -43.063 -43.547 -40.216 C -46.533 -33.729 -49.857 -27.395 -53.174 -21.067 C -55.92 -15.826 -56.733 -10.296 -55.546 -4.6 C -54.439 .71 -52.847 5.919 -51.362 11.572 C -47.828 8.859 -45.648 5.553 -43.074 2.522 C -41.649 4.381 -42.91 5.793 -43.753 7.273 C -46.06 11.321 -48.326 15.393 -50.667 19.421 C -51.837 21.435 -53.402 23.293 -51.8 25.814 C -50.185 28.354 -47.898 26.721 -45.909 26.821 C -44.95 26.869 -43.974 26.563 -43.027 26.422 C -42.86 26.919 -42.63 27.417 -42.69 27.454 C -48.467 31.097 -48.24 35.828 -45.979 41.581 C -44.396 45.607 -44.833 50.012 -46.321 54.298 C -51.009 67.798 -56.432 81.071 -58.564 95.361 C -59.231 99.83 -61.703 103.735 -64.453 107.334 C -64.923 107.951 -65.304 109.378 -66.589 108.183 C -66.589 108.182 -66.516 108.14 -66.516 108.14 C -66.495 108.512 -66.475 108.885 -66.455 109.257 C -66.827 109.237 -67.199 109.216 -67.572 109.196 L -67.515 109.139 C -67.495 109.51 -67.474 109.882 -67.453 110.253 C -67.825 110.233 -68.196 110.212 -68.567 110.192 L -68.529 110.127 C -68.529 110.127 -68.529 110.127 -68.529 110.127 C -67.268 112.262 -69.681 112.312 -70.394 113.295 C -70.867 113.949 -71.965 114.785 -71.185 115.271 C -67.127 117.8 -70.694 119.718 -71.234 122.142 C -71.978 125.479 -75.736 129.837 -69.198 132.292 C -67.688 132.859 -68.183 136.15 -69.205 138.152 C -71.104 141.874 -70.006 143.934 -65.968 145.136 C -60.798 146.676 -55.608 147.102 -49.721 146.392 C -55.011 149.848 -60.061 149.124 -65.193 148.05 C -66.381 147.802 -68.328 146.073 -68.801 148.483 C -69.179 150.407 -66.931 150.599 -65.564 150.781 C -62.771 151.151 -59.93 151.431 -57.119 151.353 C -49.611 151.146 -42.312 161.322 -45.622 168.063 C -47.491 171.87 -49.04 176.259 -47.522 179.542 C -44.414 186.271 -44.85 194.333 -39.563 200.137 C -39.16 199.375 -40.266 198.306 -39.094 197.672 C -37.868 199.165 -36.67 200.626 -35.471 202.088 C -28.026 207.334 -19.92 208.953 -10.955 207.059 C -1.285 205.017 3.142 198.05 6.283 189.646 C 4.922 197.916 1.639 205.308 -6.68 208.135 C -17.198 211.711 -27.612 211.41 -36.258 202.871 C -37.399 201.916 -38.542 200.96 -39.685 200.005 C -37.409 206.047 -32.226 208.571 -26.695 210.533 C -6.629 217.649 10.808 203.148 7.936 182.127 C 5.979 167.815 .566 155.052 -7.54 143.279 C -9.188 140.885 -11.447 139.79 -14.393 140.104 C -15.458 140.217 -16.829 140.886 -17.424 139.356 C -17.988 137.905 -17.051 136.896 -16.155 135.839 C -15.039 134.522 -12.769 134.306 -12.608 132.103 L -12.515 132.208 C -13.952 131.955 -15.058 134.012 -17.078 132.796 C -14.719 131.37 -13.381 128.977 -10.515 129.142 L -10.568 129.193 C -10.568 129.193 -10.568 129.193 -10.568 129.193 C -10.436 126.702 -8.151 126.254 -6.647 125.063 C -4.448 122.181 -2.294 119.13 1.027 117.528 C 7.999 114.166 12.697 106.788 12.303 99.189 C 12.258 98.308 12.742 97.021 11.142 96.985 C 9.801 96.954 9.88 97.954 9.577 98.962 C 8.467 102.657 7.058 106.251 2.76 109.85 C 5.89 102.29 8.914 96.243 10.139 89.564 C 11.653 81.306 10.044 78.246 2.529 75.695 C 9.826 72.691 12.744 74.358 13.481 82.087 C 13.653 83.889 13.634 85.775 13.291 87.543 C 12.803 90.055 12.938 92.216 13.956 94.719 C 17.324 103.002 12.662 116.506 5.005 119.277 C .781 120.806 -2.441 123.28 -5.834 125.812 C -6.394 126.612 -6.952 127.412 -7.511 128.213 L -7.634 128.087 C -5.44 128.35 -4.442 126.518 -3.131 125.375 C -1.236 123.722 .682 122.587 3.251 121.923 C 11.6 119.765 17.972 108.103 15.894 99.063 C 15.125 95.721 15.146 92.589 15.846 89.247 C 17.22 82.683 17.161 76.499 11.206 71.594 C 8.392 69.274 10.639 65.964 11.478 63.366 C 12.357 60.64 14.43 63.086 15.523 63.482 C 24.111 66.598 33.275 65.903 42.027 67.786 C 44.349 68.285 44.885 67.148 44.879 65.055 C 44.871 62.462 44.687 59.572 48.426 59.149 Z " fill="#fefefe"/>
<path transform="matrix(1,0,0,-1,532.5869,378.45988)" d="M 0 0 C -.102 -12.213 9.929 -22.328 22.14 -22.329 C 34.354 -22.329 44.347 -12.347 44.377 -.116 C 44.407 12.165 34.47 22.152 22.229 22.145 C 9.825 22.137 .104 12.451 0 0 M -2.618 -13.331 C -1.378 -11.545 -3.068 -10.313 -3.536 -8.899 C -7.257 2.355 -3.437 14.864 5.953 21.87 C 14.999 28.618 28.402 28.761 37.724 22.207 C 47.112 15.606 51.557 3.41 48.445 -7.216 C 45.026 -18.894 34.683 -27.135 22.751 -27.266 C 13.553 -27.367 6.1 -23.594 .368 -16.293 C -.47 -15.227 -.307 -12.838 -2.693 -13.257 C -2.695 -13.257 -2.618 -13.331 -2.618 -13.331 " fill="#fefefe"/>
<path transform="matrix(1,0,0,-1,246.062,366.71568)" d="M 0 0 C -2.422 1.294 -2.677 -1.153 -3.393 -2.21 C -8.46 -9.695 -6.386 -20.466 1.096 -26.241 C 8.357 -31.846 18.935 -30.74 25.469 -23.693 C 31.322 -17.381 31.345 -6.443 25.521 .045 C 19.22 7.062 8.295 8.331 1.191 2.788 C .367 2.145 -1.347 1.578 -.124 -.126 Z M -10.122 -11.718 C -10.047 .58 -.312 10.335 11.712 10.16 C 24.423 9.977 34 .499 33.99 -11.888 C 33.98 -23.934 23.613 -34.116 11.564 -33.914 C -.491 -33.711 -10.195 -23.779 -10.122 -11.718 " fill="#fefefe"/>
<path transform="matrix(1,0,0,-1,343.0039,449.02528)" d="M 0 0 C 2.042 .589 2.375 -.722 2.724 -1.75 C 3.576 -4.265 3.807 -7.126 5.154 -9.313 C 13.389 -22.683 4.385 -33.634 .228 -45.229 C .464 -39.879 1.586 -34.639 4.211 -29.946 C 6.932 -25.082 7.34 -20.482 5.165 -15.284 C 3.096 -10.339 1.697 -5.113 0 0 " fill="#fefefe"/>
<path transform="matrix(1,0,0,-1,468.9346,318.83729)" d="M 0 0 C 2.026 -.078 3.221 -1.263 3.998 -3.004 L 4.114 -2.895 C 3.422 -2.744 2.727 -2.208 2.04 -2.91 L 2.094 -2.961 C 2.99 -.92 .292 -1.223 .094 .105 Z " fill="#fefefe"/>
<path transform="matrix(1,0,0,-1,472.9326,321.8412)" d="M 0 0 C .782 .104 1.271 -.076 .977 -1.012 C .977 -1.012 1.1 -.886 1.1 -.886 C .521 -.802 .103 -.561 .116 .109 Z " fill="#fefefe"/>
<path transform="matrix(1,0,0,-1,396.1938,373.1464)" d="M 0 0 C 2.972 -7.746 5.447 -14.2 7.923 -20.654 C 8.042 -20.965 8.145 -21.283 8.28 -21.588 C 10.753 -27.179 15.223 -32.798 15.137 -38.348 C 15.055 -43.716 10.158 -48.952 7.605 -54.355 C 5.196 -59.453 3.085 -64.691 .457 -70.761 C -3.27 -65.529 -7.228 -61.649 -13.666 -66.239 C -13.548 -65.083 -13.601 -64.622 -13.482 -64.572 C -8.361 -62.448 -8.687 -59.908 -12.134 -56.058 C -15.468 -52.333 -16.382 -47.402 -15.761 -42.423 C -13.898 -27.473 -6.079 -14.795 0 0 " fill="#353534"/>
<path transform="matrix(1,0,0,-1,356.9399,354.7851)" d="M 0 0 C -2.147 -2.012 -4.085 -4.327 -6.483 -5.975 C -12.98 -10.438 -17.666 -15.829 -16.897 -25.132 C -23.945 -13.964 -9.465 -1.927 .042 -.046 Z " fill="#353534"/>
<path transform="matrix(1,0,0,-1,359.4692,333.7905)" d="M 0 0 C -1.306 -3.038 -3.343 -4.56 -5.762 -5.781 C -6.176 -3.187 -5.81 1.128 -9.481 -4.128 C -11.141 -2.675 -12.346 -4.158 -13.89 -4.531 C -20.107 -6.036 -24.647 -10.797 -24.525 -16.861 C -24.489 -18.605 -23.969 -20.156 -26.076 -20.923 C -26.797 -6.504 -19.051 1.703 0 0 " fill="#353534"/>
<path transform="matrix(1,0,0,-1,395.1929,340.49259)" d="M 0 0 C 2.647 3.812 -5.712 3.074 -7.573 7.271 C .399 4.586 8.11 3.107 14.672 -1.79 C 9.101 -.769 3.12 6.606 0 0 " fill="#353534"/>
<path transform="matrix(1,0,0,-1,287.5771,396.4394)" d="M 0 0 C 7.351 -3.718 16.075 -4.453 22.125 -11.002 C 14.508 -7.735 6.892 -4.47 -.724 -1.203 C -.482 -.802 -.241 -.401 0 0 " fill="#353534"/>
<path transform="matrix(1,0,0,-1,349.7075,402.93159)" d="M 0 0 C -4.134 3.223 -6.925 7.528 -9.844 11.729 C -6.359 7.983 -1.667 5.21 0 0 " fill="#353534"/>
<path transform="matrix(1,0,0,-1,400.9302,279.2035)" d="M 0 0 C 1.432 -5.084 .696 -10.244 .587 -14.922 C .049 -10.277 .837 -5.1 0 0 " fill="#353534"/>
<path transform="matrix(1,0,0,-1,358.9229,309.93348)" d="M 0 0 C 2.129 -3.77 3.537 -6.261 5.338 -9.45 C 1.787 -7.08 .26 -4.492 0 0 " fill="#353534"/>
<path transform="matrix(1,0,0,-1,358.6558,310.0395)" d="M 0 0 C -1.406 1.338 -2.106 2.346 -1.483 4.096 C -.366 2.982 .275 1.951 0 0 " fill="#353534"/>
<path transform="matrix(1,0,0,-1,356.9824,354.831)" d="M 0 0 C .925 .104 1.004 .692 .82 1.432 C .83 1.296 .903 1.11 .84 1.032 C .567 .687 .254 .372 -.043 .046 C -.042 .046 0 0 0 0 " fill="#353534"/>
<path transform="matrix(1,0,0,-1,283.7139,395.3075)" d="M 0 0 C -.146 -.086 -.291 -.244 -.398 -.222 C -.674 -.163 -.934 -.025 -1.2 .08 C -1.071 .156 -.928 .313 -.818 .292 C -.541 .239 -.28 .105 0 0 " fill="#353534"/>
<path transform="matrix(1,0,0,-1,412.9756,340.748)" d="M 0 0 C .371 .02 .743 .041 1.114 .061 C 1.094 -.311 1.073 -.682 1.052 -1.053 C -.123 -1.526 -.546 -1.248 0 0 " fill="#353534"/>
<path transform="matrix(1,0,0,-1,413.9712,341.74458)" d="M 0 0 C .373 .021 .745 .041 1.117 .062 C 1.097 -.311 1.077 -.684 1.056 -1.056 C -.144 -1.551 -.497 -1.2 0 0 " fill="#353534"/>
<path transform="matrix(1,0,0,-1,376.2148,264.6728)" d="M 0 0 L -.083 -.148 C -.083 -.148 -.076 .13 -.074 .126 C -.071 .123 0 0 0 0 " fill="#353534"/>
<path transform="matrix(1,0,0,-1,285.353,396.0409)" d="M 0 0 C .105 -.005 .21 -.01 .316 -.015 C .255 -.202 .194 -.39 .132 -.577 C .031 -.478 -.1 -.392 -.157 -.271 C -.182 -.218 -.057 -.093 0 0 " fill="#353534"/>
<path transform="matrix(1,0,0,-1,352.8042,444.99989)" d="M 0 0 L .637 -.076 C .565 -.104 .468 -.175 .425 -.15 C .302 -.079 .201 .03 .087 .118 C .083 .112 0 0 0 0 " fill="#353534"/>
<path transform="matrix(1,0,0,-1,482.3721,378.10829)" d="M 0 0 C 4.406 1.474 6.392 -1.316 7.73 -4.682 C 8.657 -7.014 8.239 -9.605 8.296 -12.103 C 8.397 -16.521 6.151 -21.133 9.408 -25.361 C 9.854 -25.94 9.418 -27.317 9.192 -28.278 C 6.326 -40.459 6.343 -53.102 2.968 -65.581 C 1.438 -63.857 -.072 -62.191 -1.536 -60.484 C -2.08 -59.85 -2.677 -58.855 -1.671 -58.391 C 1.922 -56.729 1.271 -53.056 2.304 -50.231 C 2.815 -48.832 4.113 -46.739 .589 -46.464 C -1.339 -46.313 .328 -44.597 .683 -43.788 C 2.018 -40.747 3.769 -37.848 4.185 -34.501 C 4.366 -33.04 5.933 -31.045 2.584 -30.392 C .64 -30.013 2.45 -28.12 2.78 -27.101 C 5.232 -19.519 6.912 -11.962 3.241 -4.281 C 2.464 -2.655 1.87 -.861 .055 .007 Z " fill="#353534"/>
<path transform="matrix(1,0,0,-1,475.709,325.12739)" d="M 0 0 C 3.393 -2.533 6.615 -5.007 10.839 -6.536 C 18.496 -9.307 23.158 -22.811 19.79 -31.094 C 18.772 -33.597 18.637 -35.758 19.125 -38.27 C 19.468 -40.038 19.487 -41.924 19.315 -43.726 C 18.578 -51.455 15.66 -53.122 8.363 -50.118 C 15.878 -47.567 17.487 -44.507 15.973 -36.249 C 14.748 -29.57 11.724 -23.523 8.594 -15.963 C 12.892 -19.562 14.301 -23.156 15.411 -26.851 C 15.714 -27.859 15.635 -28.859 16.976 -28.828 C 18.576 -28.792 18.092 -27.505 18.137 -26.624 C 18.531 -19.025 13.833 -11.647 6.861 -8.285 C 3.54 -6.683 1.386 -3.632 -.813 -.75 C -.543 -.5 -.271 -.25 0 0 " fill="#353534"/>
<path transform="matrix(1,0,0,-1,464.2861,336.1518)" d="M 0 0 C 5.643 -7.918 9.191 -15.627 9.273 -24.584 C 9.331 -30.82 6.917 -33.778 .864 -35.08 C -5.589 -36.466 -12.108 -37.049 -18.753 -36.445 C -18.397 -34.292 -16.823 -34.818 -15.601 -34.583 C -12.179 -33.927 -8.769 -33.205 -5.352 -32.519 C 4.762 -30.492 6.999 -27.243 5.455 -16.889 C 4.618 -11.277 1.729 -6.328 0 0 " fill="#353534"/>
<path transform="matrix(1,0,0,-1,445.2842,248.06879)" d="M 0 0 C 8.646 8.538 19.061 8.839 29.579 5.264 C 37.897 2.436 41.181 -4.956 42.542 -13.226 C 39.4 -4.822 34.974 2.145 25.304 4.187 C 16.339 6.082 8.232 4.462 .788 -.784 Z " fill="#353534"/>
<path transform="matrix(1,0,0,-1,477.3652,424.0341)" d="M 0 0 C -.357 7.378 -1 13.184 -5.171 17.916 C -5.983 18.838 -6.474 20.014 -5.294 20.979 C -.44 24.953 1.193 30.219 .693 36.421 C 3.156 31.344 2.274 26.569 -.146 22.14 C -1.596 19.486 -2.133 17.399 -.713 14.416 C 1.22 10.356 .971 5.843 0 0 " fill="#353534"/>
<path transform="matrix(1,0,0,-1,468.2324,308.495)" d="M 0 0 C 4.402 4.419 7.228 10.127 10.803 15.261 C 12.441 17.615 13.537 20.299 13.011 23.23 C 12.501 26.073 14.008 27.317 16.154 28.308 C 14.733 16.54 8.349 7.692 0 0 " fill="#353534"/>
<path transform="matrix(1,0,0,-1,505.7119,392.7812)" d="M 0 0 C -3.282 -1.448 -6.554 -2.92 -9.853 -4.329 C -10.813 -4.739 -12.172 -6.036 -12.783 -4.498 C -13.3 -3.198 -12.754 -1.383 -10.942 -.966 C -7.414 -.153 -3.842 .473 -.288 1.176 C -.192 .784 -.097 .392 0 0 " fill="#353534"/>
<path transform="matrix(1,0,0,-1,506.2891,387.24699)" d="M 0 0 C 3.391 .436 6.781 .87 10.866 1.395 C 6.937 -.293 3.505 -.765 0 0 " fill="#353534"/>
<path transform="matrix(1,0,0,-1,485.5488,459.35539)" d="M 0 0 C -.992 1.849 -1.984 3.696 -2.978 5.545 C -.756 4.357 .48 2.554 0 0 " fill="#353534"/>
<path transform="matrix(1,0,0,-1,469.0283,318.73188)" d="M 0 0 C .198 -1.328 2.896 -1.025 2 -3.067 C -.866 -3.231 -2.204 -.839 -4.563 .587 C -2.543 1.803 -1.437 -.253 0 0 " fill="#353534"/>
<path transform="matrix(1,0,0,-1,473.0488,321.73228)" d="M 0 0 C -.014 -.669 .405 -.911 .983 -.995 C 1.542 -1.796 2.101 -2.596 2.66 -3.396 C 2.389 -3.645 2.117 -3.895 1.847 -4.145 C .343 -2.954 -1.941 -2.506 -2.074 -.015 C -1.388 .687 -.692 .151 0 0 " fill="#353534"/>
<path transform="matrix(1,0,0,-1,441.8584,250.93497)" d="M 0 0 C 1.143 .955 2.285 1.911 3.427 2.866 C 3.688 2.605 3.951 2.344 4.214 2.083 C 3.015 .621 1.816 -.84 .591 -2.333 C -.581 -1.699 .524 -.63 .121 .132 C .119 .129 0 0 0 0 " fill="#353534"/>
<path transform="matrix(1,0,0,-1,463.8389,317.32118)" d="M 0 0 C -.111 -.071 -.229 -.206 -.333 -.196 C -.437 -.187 -.527 -.033 -.624 .058 C -.513 .129 -.395 .263 -.29 .253 C -.187 .244 -.097 .09 0 0 " fill="#353534"/>
<path transform="matrix(1,0,0,-1,482.4268,378.10148)" d="M 0 0 L .229 .911 C .363 .809 .499 .706 .634 .604 C .409 .402 .186 .2 -.047 -.005 C -.055 -.007 0 0 0 0 " fill="#353534"/>
<path transform="matrix(1,0,0,-1,481.543,450.94129)" d="M 0 0 C .086 -.114 .244 -.232 .236 -.34 C .229 -.447 .056 -.542 -.045 -.643 C -.13 -.529 -.287 -.41 -.28 -.303 C -.273 -.195 -.101 -.1 0 0 " fill="#353534"/>
<path transform="matrix(1,0,0,-1,581.0322,385.6757)" d="M 0 0 C -3.419 -11.678 -13.763 -19.919 -25.694 -20.05 C -34.893 -20.151 -42.346 -16.378 -48.077 -9.077 C -48.899 -8.031 -48.764 -5.72 -51.01 -6.027 C -49.887 -4.289 -51.521 -3.072 -51.981 -1.684 C -55.702 9.571 -51.882 22.08 -42.492 29.086 C -33.446 35.834 -20.043 35.977 -10.722 29.423 C -1.333 22.822 3.111 10.626 0 0 M -155.035 -69.864 C -153.929 -64.555 -152.336 -59.346 -150.852 -53.692 C -147.317 -56.405 -145.138 -59.712 -142.563 -62.742 C -141.139 -60.884 -142.399 -59.472 -143.242 -57.991 C -145.549 -53.943 -147.815 -49.872 -150.156 -45.844 C -151.326 -43.83 -152.892 -41.972 -151.289 -39.45 C -149.674 -36.91 -147.388 -38.544 -145.398 -38.443 C -144.439 -38.396 -143.463 -38.701 -142.517 -38.843 C -142.35 -38.346 -142.119 -37.848 -142.18 -37.811 C -147.956 -34.168 -147.729 -29.437 -145.468 -23.684 C -143.886 -19.657 -144.322 -15.253 -145.811 -10.967 C -150.498 2.533 -155.921 15.807 -158.054 30.097 C -158.721 34.565 -161.192 38.471 -163.942 42.07 C -164.413 42.686 -164.793 44.113 -166.079 42.918 C -166.2 42.803 -166.442 42.612 -166.425 42.585 C -158.809 30.629 -158.821 16.141 -153.437 3.445 C -152.983 2.375 -152.786 1.181 -152.242 .166 C -143.846 -15.503 -147.44 -29.954 -156.462 -43.998 C -161.323 -51.566 -166.028 -59.257 -171.772 -66.176 C -174.136 -69.023 -174.468 -71.381 -173.265 -74.755 C -169.271 -85.95 -170.187 -96.625 -177.247 -106.546 C -178.677 -108.556 -180.218 -109.206 -182.62 -109.191 C -198.117 -109.091 -213.616 -109.009 -229.11 -109.233 C -233.279 -109.294 -233.57 -107.794 -232.184 -104.651 C -231.78 -103.737 -231.343 -102.837 -230.948 -101.919 C -227.278 -93.364 -227.28 -93.363 -217.421 -92.946 C -230.808 -88.752 -222.895 -78.645 -224.646 -71.061 C -226.286 -70.716 -226.405 -72.985 -228.07 -73.405 C -230.179 -69.119 -230.049 -64.52 -229.737 -59.915 C -229.683 -59.109 -228.848 -59.196 -228.208 -59.21 C -227.137 -53.257 -226.816 -47.13 -223.686 -40.529 C -229.028 -46.918 -231.636 -53.443 -234.188 -60.285 C -236.188 -53.743 -238.544 -47.418 -238.48 -40.571 C -238.474 -39.867 -237.785 -39.147 -238.319 -38.319 C -241.554 -33.307 -241.072 -26.444 -243.676 -22.188 C -247.605 -15.766 -248.746 -7.177 -256.571 -2.991 C -263.077 .489 -264.592 8.243 -261.038 15.372 C -259.946 17.562 -258.426 19.54 -257.06 21.681 C -261.207 20.233 -264.372 15.763 -264.993 10.618 C -265.733 4.477 -264.208 -1.001 -258.505 -3.853 C -254.625 -5.792 -252.939 -8.618 -251.584 -12.328 C -248.393 -21.065 -244.889 -29.688 -241.65 -38.409 C -239.228 -44.933 -239.958 -51.988 -238.691 -58.79 C -243.428 -46.69 -241.874 -32.596 -250.667 -21.771 C -253.659 -26.015 -256.443 -30.56 -259.818 -34.612 C -264.729 -40.511 -268.086 -40.88 -275.232 -38.229 C -286.258 -34.141 -294.584 -26.022 -303.974 -19.5 C -311.736 -14.108 -311.639 -14.024 -304.458 -7.671 C -302.812 -6.215 -301.476 -5.524 -299.066 -6.538 C -291.253 -9.825 -283.242 -12.636 -275.382 -15.814 C -272.921 -16.81 -271.682 -16.615 -270.452 -13.981 C -267.476 -7.609 -264.722 -1.583 -267.26 5.919 C -269.319 12.005 -266.089 17.294 -261.845 21.647 C -259.769 23.777 -257.455 25.788 -254.935 27.349 C -251.175 29.677 -249.627 32.938 -249.035 37.165 C -247.764 46.246 -242.931 50.765 -233.658 52.038 C -232.01 52.264 -230.368 52.574 -228.712 52.687 C -221.055 53.207 -217.818 58.098 -220.44 65.453 C -222.11 70.14 -224.223 74.682 -225.678 79.43 C -226.905 83.437 -227.134 87.432 -224.901 91.548 C -222.896 95.242 -225.348 99.084 -226.546 102.915 C -226.778 101.404 -227.011 99.894 -227.255 98.314 C -227.549 98.537 -227.894 98.662 -227.922 98.838 C -228.581 102.917 -232.478 107.291 -229.193 111.001 C -224.322 116.504 -218.715 121.655 -210.359 121.212 C -208.57 121.117 -206.773 121.149 -204.98 121.126 C -205.484 121.491 -206.165 121.815 -206.268 122.271 C -206.533 123.443 -205.564 123.497 -204.705 123.447 C -201.811 123.283 -198.96 122.78 -196.046 122.279 C -199.005 125.874 -203.098 125.565 -207.071 125.911 C -211.502 126.297 -214.703 122.955 -218.876 122.452 C -223.28 121.922 -225.383 117.873 -228.324 114.529 C -228.249 120.769 -221.072 125.326 -209.589 126.939 C -196.388 128.795 -185.453 124.224 -181.183 109.225 C -179.38 110.676 -180.774 112.176 -180.893 113.673 C -181.005 115.105 -182.886 116.966 -180.509 117.993 C -178.757 118.75 -176.898 118.342 -175.397 117.015 C -174.112 115.878 -173.393 113.967 -170.933 113.917 C -173.13 122.371 -180.648 120.451 -187.158 121.698 C -178.975 125.837 -168.431 120.032 -165.975 110.833 C -164.064 103.677 -164.433 96.572 -168.341 90.059 C -171.18 85.328 -171.639 80.229 -172.365 74.902 C -172.847 71.37 -174.734 67.914 -174.457 64.021 C -174.19 60.266 -174.415 56.444 -171.652 53.295 C -183.97 49.342 -191.975 56.993 -192.622 72.808 C -198.389 68.16 -198.059 56.247 -191.661 53.83 C -183.779 50.853 -175.568 48.742 -168.019 44.863 C -166.757 46.997 -169.17 47.047 -169.883 48.03 C -170.356 48.684 -171.454 49.521 -170.674 50.007 C -166.617 52.535 -170.184 54.454 -170.724 56.877 C -171.467 60.214 -175.226 64.572 -168.687 67.027 C -167.177 67.595 -167.672 70.886 -168.694 72.888 C -170.594 76.609 -169.495 78.669 -165.457 79.872 C -160.287 81.411 -155.098 81.837 -149.21 81.127 C -154.5 84.583 -159.55 83.859 -164.683 82.786 C -165.871 82.537 -167.817 80.808 -168.291 83.218 C -168.668 85.142 -166.42 85.334 -165.053 85.516 C -162.26 85.887 -159.419 86.166 -156.608 86.088 C -149.101 85.881 -141.801 96.057 -145.111 102.798 C -146.98 106.605 -148.529 110.994 -147.012 114.278 C -143.903 121.007 -144.339 129.069 -139.055 134.87 L -139.174 134.741 C -136.898 140.782 -131.715 143.307 -126.185 145.268 C -106.118 152.385 -88.682 137.884 -91.554 116.862 C -93.51 102.55 -98.923 89.787 -107.029 78.014 C -108.678 75.62 -110.937 74.525 -113.882 74.839 C -114.947 74.952 -116.318 75.622 -116.913 74.092 C -117.478 72.64 -116.54 71.631 -115.645 70.574 C -114.528 69.258 -112.258 69.041 -112.098 66.838 C -110.071 66.76 -108.877 65.575 -108.1 63.834 C -107.317 63.938 -106.828 63.758 -107.123 62.822 C -104.93 63.085 -103.932 61.253 -102.62 60.11 C -100.726 58.458 -98.808 57.323 -96.238 56.659 C -87.89 54.5 -81.518 42.838 -83.596 33.799 C -84.364 30.456 -84.343 27.324 -83.644 23.982 C -82.27 17.418 -82.328 11.234 -88.283 6.329 C -91.098 4.01 -88.851 .699 -88.012 -1.898 C -87.132 -4.625 -85.06 -2.179 -83.966 -1.782 C -75.378 1.333 -66.214 .639 -57.462 2.521 C -55.141 3.021 -54.604 1.884 -54.61 -.21 C -54.618 -2.787 -54.797 -5.656 -51.125 -6.104 C -49.984 -10.937 -53.041 -13.253 -56.612 -15.362 C -66.751 -21.35 -75.987 -28.854 -86.944 -33.457 C -88.433 -34.082 -88.741 -35.197 -89.063 -36.532 C -90.267 -41.54 -91.627 -46.513 -92.761 -51.536 C -93.701 -55.699 -93.288 -59.659 -91.26 -63.61 C -84.192 -77.377 -77.306 -91.236 -70.478 -105.123 C -69.915 -106.268 -67.451 -107.912 -70.029 -109.151 C -71.995 -110.095 -73.207 -108.463 -74.206 -106.672 C -78.898 -98.263 -83.667 -89.894 -88.571 -81.607 C -89.447 -80.128 -89.91 -77.671 -93.234 -78.056 C -87.734 -88.399 -82.411 -98.412 -76.497 -109.535 C -86.566 -108.574 -87.206 -98.377 -93.899 -94.822 C -90.882 -99.426 -87.958 -103.888 -85.086 -108.27 C -86.178 -109.773 -87.448 -109.236 -88.499 -109.238 C -104.659 -109.262 -120.82 -109.148 -136.979 -109.284 C -140.099 -109.311 -141.725 -108.328 -143.036 -105.48 C -146.022 -98.994 -149.347 -92.66 -152.663 -86.332 C -155.409 -81.091 -156.223 -75.561 -155.035 -69.864 M -232.863 -78.634 C -234.932 -73.688 -236.331 -68.463 -238.028 -63.35 C -235.987 -62.761 -235.653 -64.071 -235.304 -65.1 C -234.452 -67.614 -234.222 -70.476 -232.875 -72.663 C -224.639 -86.032 -233.643 -96.983 -237.801 -108.579 C -237.564 -103.229 -236.442 -97.988 -233.817 -93.296 C -231.096 -88.432 -230.688 -83.832 -232.863 -78.634 M -345.092 7.242 C -345.018 19.54 -335.283 29.295 -323.258 29.12 C -310.547 28.937 -300.971 19.459 -300.98 7.072 C -300.99 -4.974 -311.357 -15.156 -323.406 -14.954 C -335.461 -14.751 -345.165 -4.819 -345.092 7.242 M 47.019 18.082 C 47.019 23.409 47.241 28.747 46.983 34.061 C 44.927 76.437 35.737 117.388 21.951 157.378 C 19.733 163.814 15.12 168.406 8.554 170.589 C 1.614 172.896 -5.389 175.024 -12.409 177.074 C -55.578 189.68 -99.599 197.082 -144.574 198.648 C -182.498 199.969 -220.094 196.686 -257.473 190.556 C -283.783 186.241 -309.554 179.756 -334.73 170.9 C -341.232 168.613 -346.056 165.139 -348.446 158.327 C -360.005 125.384 -368.079 91.611 -371.904 56.932 C -375.253 26.564 -375.504 -3.836 -371.142 -34.226 C -362.489 -94.499 -336.726 -146.02 -293.163 -188.604 C -258.171 -222.808 -216.505 -246.227 -171.428 -264.234 C -165.121 -266.754 -159.545 -266.333 -153.729 -263.337 C -148.552 -260.669 -143.281 -258.168 -137.979 -255.75 C -101.479 -239.106 -66.698 -219.816 -37.142 -192.103 C -5.695 -162.616 17.464 -127.822 31.504 -87.021 C 43.225 -52.96 47.829 -17.819 47.019 18.082 " fill="#353534"/>
<path transform="matrix(1,0,0,-1,352.8867,444.88758)" d="M 0 0 C -.02 0 -.042 .001 -.062 .002 C -.069 -.036 -.076 -.074 -.083 -.112 Z " fill="#353534"/>
<path transform="matrix(1,0,0,-1,376.1436,264.55018)" d="M 0 0 C -.031 0 -.061 0 -.091 0 C -.035 -.04 .021 -.081 .071 -.123 Z " fill="#353534"/>
<path transform="matrix(1,0,0,-1,554.4951,358.4062)" d="M 0 0 C -11.221 -.096 -19.931 -9.139 -19.799 -20.557 C -19.674 -31.304 -10.707 -40.218 -.023 -40.215 C 11.363 -40.212 20.363 -31.337 20.345 -20.129 C 20.327 -8.892 11.244 .095 0 0 M -21.908 -20.054 C -21.805 -7.603 -12.083 2.083 .32 2.091 C 12.562 2.099 22.499 -7.889 22.469 -20.17 C 22.438 -32.4 12.445 -42.383 .231 -42.383 C -11.979 -42.382 -22.01 -32.267 -21.908 -20.054 " fill="#353534"/>
<path transform="matrix(1,0,0,-1,245.938,366.84169)" d="M 0 0 C -1.223 1.704 .491 2.271 1.315 2.914 C 8.419 8.457 19.344 7.188 25.645 .171 C 31.469 -6.317 31.446 -17.255 25.593 -23.567 C 19.059 -30.614 8.481 -31.72 1.22 -26.115 C -6.262 -20.34 -8.336 -9.569 -3.269 -2.084 C -2.553 -1.027 -2.298 1.42 .124 .127 C -.485 -.827 -1.092 -1.782 -1.705 -2.734 C -6.354 -9.954 -4.527 -19.635 2.487 -24.938 C 9.168 -29.991 19.212 -28.593 24.782 -21.836 C 29.991 -15.518 29.205 -5.492 23.05 .256 C 16.81 6.082 9.125 5.997 0 0 " fill="#353534"/>
<path transform="matrix(1,0,0,-1,554.7764,394.02818)" d="M 0 0 C 8.98 .068 15.742 6.915 15.632 15.827 C 15.525 24.336 8.517 31.186 -.06 31.161 C -8.805 31.137 -15.928 23.935 -15.751 15.295 C -15.576 6.705 -8.604 -.065 0 0 M -.281 35.622 C 10.963 35.717 20.046 26.73 20.063 15.493 C 20.082 4.285 11.082 -4.59 -.305 -4.593 C -10.988 -4.596 -19.955 4.318 -20.08 15.065 C -20.212 26.483 -11.502 35.526 -.281 35.622 " fill="#fefefe"/>
<path transform="matrix(1,0,0,-1,257.8467,365.81239)" d="M 0 0 C -7.042 -.028 -12.552 -5.542 -12.625 -12.635 C -12.698 -19.692 -7.18 -25.268 -.092 -25.295 C 7.375 -25.323 12.671 -20.031 12.758 -12.452 C 12.837 -5.602 7.069 .027 0 0 M -11.909 -1.029 C -2.783 4.968 4.901 5.053 11.141 -.773 C 17.296 -6.521 18.083 -16.547 12.874 -22.865 C 7.303 -29.622 -2.741 -31.021 -9.422 -25.968 C -16.436 -20.664 -18.263 -10.983 -13.613 -3.764 C -13 -2.812 -12.394 -1.856 -11.785 -.902 C -11.785 -.903 -11.909 -1.029 -11.909 -1.029 " fill="#fefefe"/>
<path transform="matrix(1,0,0,-1,568.2734,378.54579)" d="M 0 0 C .027 7.432 -6.168 13.691 -13.537 13.678 C -21.006 13.663 -27.101 7.44 -27.041 -.11 C -26.983 -7.508 -21.135 -13.338 -13.71 -13.4 C -5.973 -13.465 -.027 -7.654 0 0 M -13.497 -15.482 C -22.101 -15.548 -29.073 -8.777 -29.248 -.187 C -29.425 8.452 -22.302 15.654 -13.557 15.679 C -4.98 15.703 2.028 8.854 2.135 .345 C 2.245 -8.567 -4.517 -15.414 -13.497 -15.482 " fill="#353534"/>
<path transform="matrix(1,0,0,-1,269.001,378.123)" d="M 0 0 C -.165 6.038 -5.309 10.66 -11.607 10.429 C -17.673 10.205 -22.132 5.502 -22.036 -.571 C -21.94 -6.517 -16.605 -11.702 -10.791 -11.503 C -4.963 -11.304 .159 -5.843 0 0 M -11.154 12.311 C -4.085 12.338 1.683 6.709 1.604 -.142 C 1.517 -7.721 -3.779 -13.013 -11.246 -12.984 C -18.334 -12.957 -23.853 -7.382 -23.779 -.324 C -23.706 6.769 -18.196 12.282 -11.154 12.311 " fill="#353534"/>
<path transform="matrix(1,0,0,-1,568.2734,378.54579)" d="M 0 0 C -.027 -7.654 -5.973 -13.465 -13.71 -13.4 C -21.135 -13.338 -26.983 -7.508 -27.041 -.11 C -27.101 7.44 -21.006 13.663 -13.537 13.678 C -6.168 13.691 .027 7.432 0 0 " fill="#fefefe"/>
<path transform="matrix(1,0,0,-1,269.001,378.123)" d="M 0 0 C .159 -5.843 -4.963 -11.304 -10.791 -11.503 C -16.605 -11.702 -21.94 -6.517 -22.036 -.571 C -22.132 5.502 -17.673 10.205 -11.607 10.429 C -5.309 10.66 -.165 6.038 0 0 " fill="#fefefe"/>
</g>
<text fill="#f2d714" xml:space="preserve" transform="matrix(1 0 -0 1 0 718.269)" font-size="62" font-family="Athletic"><tspan y="-164.4297" x="315.3765 343.2765 372.4165 402.11454 449.66856 481.35054">LEEWAY</tspan></text>
<text fill="#ffffff" xml:space="preserve" transform="matrix(1 0 -0 1 0 718.269)" font-size="33" font-family="Athletic"><tspan y="-131.3057" x="316.0234 332.8204 341.4334 358.56044 381.00044 397.96244 414.95744 431.95243 439.67445 459.54045 474.65446 496.73146">FITNESS CLUB</tspan></text>
</g>
</g>
</svg>
